HIERARCHY
ROOT hip
{
  OFFSET 0 90.174 2.4664
  CHANNELS 6 Xposition Yposition Zposition Zrotation Xrotation Yrotation
  JOINT abdomen
  {
    OFFSET 0 -1.186 -1.5018
    CHANNELS 6 Xposition Yposition Zposition Zrotation Xrotation Yrotation
    JOINT abdomen2
    {
      OFFSET 0 9.964 0.2134
      CHANNELS 6 Xposition Yposition Zposition Zrotation Xrotation Yrotation
      JOINT chest
      {
        OFFSET 0 13.134 -3.2573
        CHANNELS 6 Xposition Yposition Zposition Zrotation Xrotation Yrotation
        JOINT neck
        {
          OFFSET 0 20.686 -1.6905
          CHANNELS 6 Xposition Yposition Zposition Zrotation Xrotation Yrotation
          JOINT head
          {
            OFFSET 0 7.238 -0.1237
            CHANNELS 6 Xposition Yposition Zposition Zrotation Xrotation Yrotation
            End Site
            {
              OFFSET 0 0 0
            }
          }
        }
        JOINT lCollar
        {
          OFFSET 1.7069 20.075 5.0056
          CHANNELS 6 Xposition Yposition Zposition Zrotation Xrotation Yrotation
          JOINT lShldr
          {
            OFFSET 13.6458 -0.047 -4.849
            CHANNELS 6 Xposition Yposition Zposition Zrotation Xrotation Yrotation
            JOINT lForeArm
            {
              OFFSET 28.3255 -0.9759 2.2888
              CHANNELS 6 Xposition Yposition Zposition Zrotation Xrotation Yrotation
              JOINT lHand
              {
                OFFSET 22.1583 -0.53 10.8316
                CHANNELS 6 Xposition Yposition Zposition Zrotation Xrotation Yrotation
                JOINT lThumb1
                {
                  OFFSET 0.786 0.112 2.5817
                  CHANNELS 6 Xposition Yposition Zposition Zrotation Xrotation Yrotation
                  JOINT lThumb2
                  {
                    OFFSET 0.3601 -0.878 4.2331
                    CHANNELS 6 Xposition Yposition Zposition Zrotation Xrotation Yrotation
                    JOINT lThumb2_End
                    {
                      OFFSET 1.8127 -1.216 2.2227
                      CHANNELS 6 Xposition Yposition Zposition Zrotation Xrotation Yrotation
                      End Site
                      {
                        OFFSET 0.0181 -0.0122 0.0222
                      }
                    }
                  }
                }
                JOINT lCarpal1
                {
                  OFFSET 0.9571 1.114 1.7695
                  CHANNELS 6 Xposition Yposition Zposition Zrotation Xrotation Yrotation
                  JOINT lIndex1
                  {
                    OFFSET 4.1246 0.487 4.1451
                    CHANNELS 6 Xposition Yposition Zposition Zrotation Xrotation Yrotation
                    JOINT lIndex2
                    {
                      OFFSET 3.4052 -1.454 2.7682
                      CHANNELS 6 Xposition Yposition Zposition Zrotation Xrotation Yrotation
                      JOINT lIndex2_End
                      {
                        OFFSET 1.4531 -1.795 1.2713
                        CHANNELS 6 Xposition Yposition Zposition Zrotation Xrotation Yrotation
                        End Site
                        {
                          OFFSET 0.0145 -0.0179 0.0127
                        }
                      }
                    }
                  }
                  JOINT lMid1
                  {
                    OFFSET 5.6954 0.21 2.1184
                    CHANNELS 6 Xposition Yposition Zposition Zrotation Xrotation Yrotation
                    JOINT lMid2
                    {
                      OFFSET 3.9766 -1.54 2.3863
                      CHANNELS 6 Xposition Yposition Zposition Zrotation Xrotation Yrotation
                      JOINT lMid2_End
                      {
                        OFFSET 1.4042 -1.926 1.125
                        CHANNELS 6 Xposition Yposition Zposition Zrotation Xrotation Yrotation
                        End Site
                        {
                          OFFSET 0.014 -0.0193 0.0113
                        }
                      }
                    }
                  }
                }
                JOINT lCarpal2
                {
                  OFFSET 2.0956 0.66 -0.3894
                  CHANNELS 6 Xposition Yposition Zposition Zrotation Xrotation Yrotation
                  JOINT lRing1
                  {
                    OFFSET 5.0395 -0.09 2.4971
                    CHANNELS 6 Xposition Yposition Zposition Zrotation Xrotation Yrotation
                    JOINT lRing2
                    {
                      OFFSET 3.7921 -1.552 1.4806
                      CHANNELS 6 Xposition Yposition Zposition Zrotation Xrotation Yrotation
                      JOINT lRing2_End
                      {
                        OFFSET 1.4655 -1.808 0.9609
                        CHANNELS 6 Xposition Yposition Zposition Zrotation Xrotation Yrotation
                        End Site
                        {
                          OFFSET 0.0147 -0.0181 0.0096
                        }
                      }
                    }
                  }
                  JOINT lPinky1
                  {
                    OFFSET 4.9141 -1.269 0.3591
                    CHANNELS 6 Xposition Yposition Zposition Zrotation Xrotation Yrotation
                    JOINT lPinky2
                    {
                      OFFSET 3.1477 -1.685 0.8462
                      CHANNELS 6 Xposition Yposition Zposition Zrotation Xrotation Yrotation
                      JOINT lPinky2_End
                      {
                        OFFSET 0.8055 -1.585 0.7955
                        CHANNELS 6 Xposition Yposition Zposition Zrotation Xrotation Yrotation
                        End Site
                        {
                          OFFSET 0.0081 -0.0158 0.008
                        }
                      }
                    }
                  }
                }
              }
            }
          }
        }
        JOINT rCollar
        {
          OFFSET -1.7069 20.075 5.0056
          CHANNELS 6 Xposition Yposition Zposition Zrotation Xrotation Yrotation
          JOINT rShldr
          {
            OFFSET -13.6458 -0.047 -4.849
            CHANNELS 6 Xposition Yposition Zposition Zrotation Xrotation Yrotation
            JOINT rForeArm
            {
              OFFSET -28.3255 -0.9759 2.2888
              CHANNELS 6 Xposition Yposition Zposition Zrotation Xrotation Yrotation
              JOINT rHand
              {
                OFFSET -22.1583 -0.53 10.8316
                CHANNELS 6 Xposition Yposition Zposition Zrotation Xrotation Yrotation
                JOINT rThumb1
                {
                  OFFSET -0.786 0.112 2.5817
                  CHANNELS 6 Xposition Yposition Zposition Zrotation Xrotation Yrotation
                  JOINT rThumb2
                  {
                    OFFSET -0.3601 -0.878 4.2331
                    CHANNELS 6 Xposition Yposition Zposition Zrotation Xrotation Yrotation
                    JOINT rThumb2_End
                    {
                      OFFSET -1.8127 -1.216 2.2227
                      CHANNELS 6 Xposition Yposition Zposition Zrotation Xrotation Yrotation
                      End Site
                      {
                        OFFSET -0.0181 -0.0122 0.0222
                      }
                    }
                  }
                }
                JOINT rCarpal1
                {
                  OFFSET -0.9571 1.114 1.7695
                  CHANNELS 6 Xposition Yposition Zposition Zrotation Xrotation Yrotation
                  JOINT rIndex1
                  {
                    OFFSET -4.1246 0.487 4.1451
                    CHANNELS 6 Xposition Yposition Zposition Zrotation Xrotation Yrotation
                    JOINT rIndex2
                    {
                      OFFSET -3.4052 -1.454 2.7682
                      CHANNELS 6 Xposition Yposition Zposition Zrotation Xrotation Yrotation
                      JOINT rIndex2_End
                      {
                        OFFSET -1.4531 -1.795 1.2713
                        CHANNELS 6 Xposition Yposition Zposition Zrotation Xrotation Yrotation
                        End Site
                        {
                          OFFSET -0.0145 -0.018 0.0127
                        }
                      }
                    }
                  }
                  JOINT rMid1
                  {
                    OFFSET -5.6954 0.21 2.1184
                    CHANNELS 6 Xposition Yposition Zposition Zrotation Xrotation Yrotation
                    JOINT rMid2
                    {
                      OFFSET -3.9766 -1.54 2.3863
                      CHANNELS 6 Xposition Yposition Zposition Zrotation Xrotation Yrotation
                      JOINT rMid2_End
                      {
                        OFFSET -1.4042 -1.926 1.125
                        CHANNELS 6 Xposition Yposition Zposition Zrotation Xrotation Yrotation
                        End Site
                        {
                          OFFSET -0.014 -0.0193 0.0113
                        }
                      }
                    }
                  }
                }
                JOINT rCarpal2
                {
                  OFFSET -2.0956 0.66 -0.3894
                  CHANNELS 6 Xposition Yposition Zposition Zrotation Xrotation Yrotation
                  JOINT rRing1
                  {
                    OFFSET -5.0395 -0.09 2.4971
                    CHANNELS 6 Xposition Yposition Zposition Zrotation Xrotation Yrotation
                    JOINT rRing2
                    {
                      OFFSET -3.7921 -1.552 1.4806
                      CHANNELS 6 Xposition Yposition Zposition Zrotation Xrotation Yrotation
                      JOINT rRing2_End
                      {
                        OFFSET -1.4655 -1.808 0.9609
                        CHANNELS 6 Xposition Yposition Zposition Zrotation Xrotation Yrotation
                        End Site
                        {
                          OFFSET -0.0147 -0.0181 0.0096
                        }
                      }
                    }
                  }
                  JOINT rPinky1
                  {
                    OFFSET -4.9141 -1.269 0.3592
                    CHANNELS 6 Xposition Yposition Zposition Zrotation Xrotation Yrotation
                    JOINT rPinky2
                    {
                      OFFSET -3.1477 -1.685 0.8462
                      CHANNELS 6 Xposition Yposition Zposition Zrotation Xrotation Yrotation
                      JOINT rPinky2_End
                      {
                        OFFSET -0.8055 -1.585 0.7955
                        CHANNELS 6 Xposition Yposition Zposition Zrotation Xrotation Yrotation
                        End Site
                        {
                          OFFSET -0.0081 -0.0158 0.008
                        }
                      }
                    }
                  }
                }
              }
            }
          }
        }
      }
    }
  }
  JOINT lThigh
  {
    OFFSET 8.367 -8.2066 0.5982
    CHANNELS 6 Xposition Yposition Zposition Zrotation Xrotation Yrotation
    JOINT lShin
    {
      OFFSET 2.1923 -43.463 -0.4932
      CHANNELS 6 Xposition Yposition Zposition Zrotation Xrotation Yrotation
      JOINT lFoot
      {
        OFFSET 0.7333 -45.8593 -2.6451
        CHANNELS 6 Xposition Yposition Zposition Zrotation Xrotation Yrotation
        End Site
        {
          OFFSET 2.6618 -4.2699 12.3931
        }
      }
    }
  }
  JOINT rThigh
  {
    OFFSET -8.367 -8.2066 0.5982
    CHANNELS 6 Xposition Yposition Zposition Zrotation Xrotation Yrotation
    JOINT rShin
    {
      OFFSET -2.1923 -43.463 -0.4931
      CHANNELS 6 Xposition Yposition Zposition Zrotation Xrotation Yrotation
      JOINT rFoot
      {
        OFFSET -0.7333 -45.8593 -2.6451
        CHANNELS 6 Xposition Yposition Zposition Zrotation Xrotation Yrotation
        End Site
        {
          OFFSET -2.6618 -4.2699 12.3931
        }
      }
    }
  }
}
MOTION
Frames:	4
Frame Time:	0.0333333
0 90.174 2.4664 0 0 -0 0 -1.186 -1.5018 0 0 -0 0 9.964 0.2134 0 0 -0 0 13.134 -3.2573 0 0 -0 0 20.686 -1.6905 0 0 -0 0 7.238 -0.1237 0 0 -0 1.7069 20.075 5.0056 0 0 -0 13.6458 -0.047 -4.849 1.66051 0.0835086 5.75766 28.3255 -0.9759 2.2888 -0.0175111 0.895433 15.7816 22.1583 -0.53 10.8316 7.95139e-016 -1.98785e-016 -0 0.786 0.112 2.5817 5.46658e-016 -3.97569e-016 -0 0.3601 -0.878 4.2331 5.96354e-016 0 -0 1.8127 -1.216 2.2227 3.97569e-016 1.98785e-016 9.54166e-015 0.9571 1.114 1.7695 1.49089e-016 -3.97569e-016 -0 4.1246 0.487 4.1451 6.4605e-016 0 3.18055e-015 3.4052 -1.454 2.7682 5.96354e-016 0 3.18055e-015 1.4531 -1.795 1.2713 8.94531e-016 -1.98785e-016 6.36111e-015 5.6954 0.21 2.1184 6.4605e-016 0 3.18055e-015 3.9766 -1.54 2.3863 5.96354e-016 0 3.18055e-015 1.4042 -1.926 1.125 8.94531e-016 -1.98785e-016 6.36111e-015 2.0956 0.66 -0.3894 1.49089e-016 -3.97569e-016 -0 5.0395 -0.09 2.4971 6.4605e-016 0 3.18055e-015 3.7921 -1.552 1.4806 5.96354e-016 0 3.18055e-015 1.4655 -1.808 0.9609 8.94531e-016 -1.98785e-016 6.36111e-015 4.9141 -1.269 0.3591 6.4605e-016 0 3.18055e-015 3.1477 -1.685 0.8462 5.96354e-016 0 3.18055e-015 0.8055 -1.585 0.7955 8.94531e-016 -1.98785e-016 6.36111e-015 -1.7069 20.075 5.0056 0 0 -0 -13.6458 -0.047 -4.849 -1.4496 0.0636048 -5.0245 -28.3255 -0.9759 2.2888 -1.74811 1.20616 -16.8394 -22.1583 -0.53 10.8316 -1.19271e-015 1.98785e-016 -3.18055e-015 -0.786 0.112 2.5817 -3.97569e-016 1.98785e-016 -3.18055e-015 -0.3601 -0.878 4.2331 -2.98177e-016 1.98785e-016 -3.18055e-015 -1.8127 -1.216 2.2227 -2.98177e-016 3.97569e-016 -0 -0.9571 1.114 1.7695 4.96962e-016 0 -6.36111e-015 -4.1246 0.487 4.1451 -9.93923e-017 3.97569e-016 -0 -3.4052 -1.454 2.7682 -8.94531e-016 5.96354e-016 -0 -1.4531 -1.795 1.2713 -3.97569e-016 3.97569e-016 -0 -5.6954 0.21 2.1184 -9.93923e-017 3.97569e-016 -0 -3.9766 -1.54 2.3863 -8.94531e-016 5.96354e-016 -0 -1.4042 -1.926 1.125 -3.97569e-016 3.97569e-016 -0 -2.0956 0.66 -0.3894 4.96962e-016 0 -6.36111e-015 -5.0395 -0.09 2.4971 -9.93923e-017 3.97569e-016 -0 -3.7921 -1.552 1.4806 -8.94531e-016 5.96354e-016 -0 -1.4655 -1.808 0.9609 -3.97569e-016 3.97569e-016 -0 -4.9141 -1.269 0.3592 -9.93923e-017 3.97569e-016 -0 -3.1477 -1.685 0.8462 -8.94531e-016 5.96354e-016 -0 -0.8055 -1.585 0.7955 -3.97569e-016 3.97569e-016 -0 8.367 -8.2066 0.5982 -4.66115 -1.03232 0.120763 2.1923 -43.463 -0.4932 0.00990601 1.55097 0.177175 0.7333 -45.8593 -2.6451 4.65196 -0.54114 -0.255042 -8.367 -8.2066 0.5982 4.66115 -1.03222 -0.120763 -2.1923 -43.463 -0.4931 -0.00990459 1.5509 -0.177176 -0.7333 -45.8593 -2.6451 -4.65196 -0.541171 0.255041 
-7.58194 -1.32021 -82.9104 90.1059 -80.9863 -179.891 -2.22045e-016 -1.186 -1.5018 2.03347 -3.06829 -0.260481 8.88178e-016 9.964 0.2134 4.06166 -6.14382 -0.412505 -1.77636e-015 13.134 -3.2573 4.06168 -6.14384 -0.412497 0 20.686 -1.6905 8.99788 -1.97981 0.311954 -7.10543e-015 7.238 -0.1237 7.61186e-006 14.9982 2.06755e-006 1.7069 20.075 5.0056 -22.7388 1.49185 -15.4803 13.6458 -0.047 -4.849 -44.8109 -3.55798 -53.7952 28.3255 -0.9759 2.2888 -5.24459 5.55098 21.3154 22.1583 -0.53 10.8316 -56.5493 28.8394 -20.6387 0.786 0.112 2.5817 -1.12753e-005 4.9506e-007 -2.78815e-006 0.3601 -0.878 4.2331 5.16622e-007 8.99914e-007 -1.34483e-006 1.8127 -1.216 2.2227 9.04322e-008 2.2397e-006 2.47224e-006 0.9571 1.114 1.7695 -3.18055e-015 6.36111e-015 6.36111e-015 4.1246 0.487 4.1451 -1.12753e-005 4.9506e-007 -2.78815e-006 3.4052 -1.454 2.7682 5.16622e-007 8.99914e-007 -1.34483e-006 1.4531 -1.795 1.2713 9.04322e-008 2.2397e-006 2.47224e-006 5.6954 0.21 2.1184 -1.12753e-005 4.9506e-007 -2.78815e-006 3.9766 -1.54 2.3863 5.16622e-007 8.99914e-007 -1.34483e-006 1.4042 -1.926 1.125 9.04322e-008 2.2397e-006 2.47224e-006 2.0956 0.66 -0.3894 -3.18055e-015 6.36111e-015 6.36111e-015 5.0395 -0.09 2.4971 -1.12753e-005 4.9506e-007 -2.78815e-006 3.7921 -1.552 1.4806 5.16622e-007 8.99914e-007 -1.34483e-006 1.4655 -1.808 0.9609 9.04322e-008 2.2397e-006 2.47224e-006 4.9141 -1.269 0.3591 -1.12753e-005 4.9506e-007 -2.78815e-006 3.1477 -1.685 0.8462 5.16622e-007 8.99914e-007 -1.34483e-006 0.8055 -1.585 0.7955 9.04322e-008 2.2397e-006 2.47224e-006 -1.7069 20.075 5.0056 6.8773 -19.8376 -44.15 -13.6458 -0.047 -4.849 30.8838 10.9381 -21.1787 -28.3255 -0.9759 2.2888 67.6799 -26.722 -15.0037 -22.1583 -0.53 10.8316 -32.8299 -5.31136 8.80347 -0.786 0.112 2.5817 4.41391e-031 7.95139e-015 -3.18055e-015 -0.3601 -0.878 4.2331 3.18055e-015 4.77083e-015 -6.36111e-015 -1.8127 -1.216 2.2227 3.18055e-015 7.95139e-016 -0 -0.9571 1.114 1.7695 -1.59028e-015 7.15625e-015 -3.18055e-015 -4.1246 0.487 4.1451 -1.59028e-015 1.59028e-015 -0 -3.4052 -1.454 2.7682 -1.59028e-015 0 3.18055e-015 -1.4531 -1.795 1.2713 -1.59028e-015 1.59028e-015 3.18055e-015 -5.6954 0.21 2.1184 -1.59028e-015 1.59028e-015 -0 -3.9766 -1.54 2.3863 -1.59028e-015 0 3.18055e-015 -1.4042 -1.926 1.125 -1.59028e-015 1.59028e-015 3.18055e-015 -2.0956 0.66 -0.3894 -1.59028e-015 7.15625e-015 -3.18055e-015 -5.0395 -0.09 2.4971 -1.59028e-015 1.59028e-015 -0 -3.7921 -1.552 1.4806 -1.59028e-015 0 3.18055e-015 -1.4655 -1.808 0.9609 -1.59028e-015 1.59028e-015 3.18055e-015 -4.9141 -1.269 0.3592 -1.59028e-015 1.59028e-015 -0 -3.1477 -1.685 0.8462 -1.59028e-015 0 3.18055e-015 -0.8055 -1.585 0.7955 -1.59028e-015 1.59028e-015 3.18055e-015 8.367 -8.2066 0.5982 -2.0831 12.5216 8.2989 2.1923 -43.463 -0.4932 0.153533 40.2176 -1.96118 0.7333 -45.8593 -2.6451 6.79268 45.9933 1.61367 -8.367 -8.2066 0.5982 -74.1806 -15.3806 -82.2875 -2.1923 -43.463 -0.4931 140.284 51.2115 -135.046 -0.7333 -45.8593 -2.6451 2.51984 36.0549 9.79775 
-7.72417 -1.32068 -82.8193 90.1077 -81.4865 -179.889 0 -1.186 -1.5018 2.03346 -3.06826 -0.260498 0 9.964 0.2134 4.06167 -6.14385 -0.412498 0 13.134 -3.2573 4.06167 -6.14384 -0.412506 -3.55271e-015 20.686 -1.6905 8.99817 -1.98014 0.311963 0 7.238 -0.1237 2.09907e-006 14.7063 1.85649e-006 1.7069 20.075 5.0056 -22.2487 0.948092 -14.6166 13.6458 -0.047 -4.849 -45.2253 -2.96133 -54.5623 28.3255 -0.9759 2.2888 -5.75651 5.57351 21.3193 22.1583 -0.53 10.8316 -56.1403 28.7817 -20.9144 0.786 0.112 2.5817 5.16646e-007 9.01388e-007 -1.34409e-006 0.3601 -0.878 4.2331 -9.49854e-006 1.85488e-006 -3.28136e-008 1.8127 -1.216 2.2227 2.58323e-007 4.50694e-007 -6.72043e-007 0.9571 1.114 1.7695 -0 0 3.18055e-015 4.1246 0.487 4.1451 5.16645e-007 9.01388e-007 -1.34409e-006 3.4052 -1.454 2.7682 -9.49854e-006 1.85488e-006 -3.28136e-008 1.4531 -1.795 1.2713 2.58323e-007 4.50694e-007 -6.72043e-007 5.6954 0.21 2.1184 5.16645e-007 9.01388e-007 -1.34409e-006 3.9766 -1.54 2.3863 -9.49854e-006 1.85488e-006 -3.28136e-008 1.4042 -1.926 1.125 2.58323e-007 4.50694e-007 -6.72043e-007 2.0956 0.66 -0.3894 -0 0 3.18055e-015 5.0395 -0.09 2.4971 5.16645e-007 9.01388e-007 -1.34409e-006 3.7921 -1.552 1.4806 -9.49854e-006 1.85488e-006 -3.28136e-008 1.4655 -1.808 0.9609 2.58323e-007 4.50694e-007 -6.72043e-007 4.9141 -1.269 0.3591 5.16645e-007 9.01388e-007 -1.34409e-006 3.1477 -1.685 0.8462 -9.49854e-006 1.85488e-006 -3.28136e-008 0.8055 -1.585 0.7955 2.58323e-007 4.50694e-007 -6.72043e-007 -1.7069 20.075 5.0056 6.87731 -19.8376 -44.15 -13.6458 -0.047 -4.849 30.8838 10.9381 -21.1787 -28.3255 -0.9759 2.2888 67.6799 -26.722 -15.0037 -22.1583 -0.53 10.8316 -32.8299 -5.31136 8.80349 -0.786 0.112 2.5817 3.0596e-006 -5.42146e-006 4.07906e-007 -0.3601 -0.878 4.2331 -1.55666e-006 -2.30813e-006 1.84315e-006 -1.8127 -1.216 2.2227 1.59028e-015 -7.95139e-015 -6.36111e-015 -0.9571 1.114 1.7695 -1.59028e-015 1.59028e-015 3.18055e-015 -4.1246 0.487 4.1451 3.0596e-006 -5.42146e-006 4.07906e-007 -3.4052 -1.454 2.7682 -1.55666e-006 -2.30813e-006 1.84315e-006 -1.4531 -1.795 1.2713 4.77083e-015 1.59028e-015 -6.36111e-015 -5.6954 0.21 2.1184 3.0596e-006 -5.42146e-006 4.07906e-007 -3.9766 -1.54 2.3863 -1.55666e-006 -2.30813e-006 1.84315e-006 -1.4042 -1.926 1.125 4.77083e-015 1.59028e-015 -6.36111e-015 -2.0956 0.66 -0.3894 -1.59028e-015 1.59028e-015 3.18055e-015 -5.0395 -0.09 2.4971 3.0596e-006 -5.42146e-006 4.07906e-007 -3.7921 -1.552 1.4806 -1.55666e-006 -2.30813e-006 1.84315e-006 -1.4655 -1.808 0.9609 4.77083e-015 1.59028e-015 -6.36111e-015 -4.9141 -1.269 0.3592 3.0596e-006 -5.42146e-006 4.07906e-007 -3.1477 -1.685 0.8462 -1.55666e-006 -2.30813e-006 1.84315e-006 -0.8055 -1.585 0.7955 4.77083e-015 1.59028e-015 -6.36111e-015 8.367 -8.2066 0.5982 -2.10207 11.5862 8.32722 2.1923 -43.463 -0.4932 0.330898 40.8283 -2.05797 0.7333 -45.8593 -2.6451 6.78495 46.036 1.61516 -8.367 -8.2066 0.5982 -74.4182 -15.7338 -82.9976 -2.1923 -43.463 -0.4931 140.275 51.2166 -135.035 -0.7333 -45.8593 -2.6451 2.66083 36.083 9.42592 
-7.86659 -1.32111 -82.7278 90.11 -81.9869 -179.887 2.22045e-016 -1.186 -1.5018 2.03347 -3.06827 -0.260519 -8.88178e-016 9.964 0.2134 4.06166 -6.14384 -0.412493 0 13.134 -3.2573 4.06168 -6.14384 -0.412492 0 20.686 -1.6905 8.99772 -1.97982 0.311961 0 7.238 -0.1237 4.65334e-007 14.4143 -2.45579e-006 1.7069 20.075 5.0056 -21.7498 0.410982 -13.7471 13.6458 -0.047 -4.849 -45.6318 -2.35861 -55.3255 28.3255 -0.9759 2.2888 -6.26857 5.59737 21.3235 22.1583 -0.53 10.8316 -55.7317 28.7222 -21.1895 0.786 0.112 2.5817 3.18055e-015 -3.18055e-015 3.18055e-015 0.3601 -0.878 4.2331 -1.15718e-006 2.57115e-006 -1.06047e-006 1.8127 -1.216 2.2227 6.53032e-006 -3.25346e-006 3.12764e-006 0.9571 1.114 1.7695 1.59028e-015 3.18055e-015 6.36111e-015 4.1246 0.487 4.1451 -1.59028e-015 0 6.36111e-015 3.4052 -1.454 2.7682 -1.15718e-006 2.57115e-006 -1.06047e-006 1.4531 -1.795 1.2713 6.53032e-006 -3.25346e-006 3.12764e-006 5.6954 0.21 2.1184 -1.59028e-015 0 6.36111e-015 3.9766 -1.54 2.3863 -1.15718e-006 2.57115e-006 -1.06047e-006 1.4042 -1.926 1.125 6.53032e-006 -3.25346e-006 3.12764e-006 2.0956 0.66 -0.3894 1.59028e-015 3.18055e-015 6.36111e-015 5.0395 -0.09 2.4971 -1.59028e-015 0 6.36111e-015 3.7921 -1.552 1.4806 -1.15718e-006 2.57115e-006 -1.06047e-006 1.4655 -1.808 0.9609 6.53032e-006 -3.25346e-006 3.12764e-006 4.9141 -1.269 0.3591 -1.59028e-015 0 6.36111e-015 3.1477 -1.685 0.8462 -1.15718e-006 2.57115e-006 -1.06047e-006 0.8055 -1.585 0.7955 6.53032e-006 -3.25346e-006 3.12764e-006 -1.7069 20.075 5.0056 6.87729 -19.8376 -44.15 -13.6458 -0.047 -4.849 30.8838 10.9381 -21.1787 -28.3255 -0.9759 2.2888 67.6799 -26.722 -15.0037 -22.1583 -0.53 10.8316 -32.8299 -5.31137 8.80348 -0.786 0.112 2.5817 1.54656e-006 2.31491e-006 -1.84001e-006 -0.3601 -0.878 4.2331 1.54656e-006 2.31491e-006 -1.84001e-006 -1.8127 -1.216 2.2227 1.54656e-006 2.31491e-006 -1.84001e-006 -0.9571 1.114 1.7695 -1.32417e-031 -2.38542e-015 -3.18055e-015 -4.1246 0.487 4.1451 1.54656e-006 2.31491e-006 -1.84001e-006 -3.4052 -1.454 2.7682 1.54656e-006 2.31491e-006 -1.84001e-006 -1.4531 -1.795 1.2713 1.54656e-006 2.31491e-006 -1.84001e-006 -5.6954 0.21 2.1184 1.54656e-006 2.31491e-006 -1.84001e-006 -3.9766 -1.54 2.3863 1.54656e-006 2.31491e-006 -1.84001e-006 -1.4042 -1.926 1.125 1.54656e-006 2.31491e-006 -1.84001e-006 -2.0956 0.66 -0.3894 -1.32417e-031 -2.38542e-015 -3.18055e-015 -5.0395 -0.09 2.4971 1.54656e-006 2.31491e-006 -1.84001e-006 -3.7921 -1.552 1.4806 1.54656e-006 2.31491e-006 -1.84001e-006 -1.4655 -1.808 0.9609 1.54656e-006 2.31491e-006 -1.84001e-006 -4.9141 -1.269 0.3592 1.54656e-006 2.31491e-006 -1.84001e-006 -3.1477 -1.685 0.8462 1.54656e-006 2.31491e-006 -1.84001e-006 -0.8055 -1.585 0.7955 1.54656e-006 2.31491e-006 -1.84001e-006 8.367 -8.2066 0.5982 -2.12069 10.7223 8.35855 2.1923 -43.463 -0.4932 0.502785 41.3674 -2.16156 0.7333 -45.8593 -2.6451 6.77775 46.0785 1.6164 -8.367 -8.2066 0.5982 -74.6616 -16.0836 -83.711 -2.1923 -43.463 -0.4931 140.267 51.2213 -135.025 -0.7333 -45.8593 -2.6451 2.80213 36.1105 9.05383 
